# xmcd
#
# Track frame offsets: 
#        150
#        13990
#        25416
#        41976
#        57937
#        72194
#        83932
#        99097
#        113718
#        130553
#        151023
#        170490
#        184589
#        195254
#        205638
#        224672
#        243212
#        258447
#        279136
#        297337
#        319709
#
# Disc length: 4306 seconds
#
# Revision: 0
# Processed by: cddbd v1.5.2PL0 Copyright (c) Steve Scherf et al.
# Submitted via: ExactAudioCopy v0.99pb5
#
DISCID=1f10d015
DTITLE=Екатерина Болдырева - Концерт в "Желтой Субмарине"
DYEAR=2003
DGENRE=Chanson
TTITLE0=01. Близнецы
TTITLE1=02. Братик
TTITLE2=03. Все равно
TTITLE3=04. Всей душой
TTITLE4=05. Голова
TTITLE5=06. Дворик
TTITLE6=07. Довольно гнездиться здесь
TTITLE7=08. Зимняя румба
TTITLE8=09. Издержки любви
TTITLE9=10. Ирландия
TTITLE10=11. Кареотида
TTITLE11=12. Комрад
TTITLE12=13. Кострома
TTITLE13=14. Мама
TTITLE14=15. В маминой квартире
TTITLE15=16. Милый мой
TTITLE16=17. Молодость
TTITLE17=18. Не надо
TTITLE18=19. Огнетушитель
TTITLE19=20. Поверь
TTITLE20=Bonus
EXTD=
EXTT0=
EXTT1=
EXTT2=
EXTT3=
EXTT4=
EXTT5=
EXTT6=
EXTT7=
EXTT8=
EXTT9=
EXTT10=
EXTT11=
EXTT12=
EXTT13=
EXTT14=
EXTT15=
EXTT16=
EXTT17=
EXTT18=
EXTT19=
EXTT20=
PLAYORDER=
